# xmcd
#
# Track frame offsets:
#	183
#	11945
#	31455
#	44173
#	55990
#	70668
#	88595
#	102875
#	120900
#	132618
#	144933
#	159770
#	171908
#	188398
#	202005
#	212805
#	221765
#	247998
#	265270
#	279170
#	289925
#	301455
#	313050
#	323795
#	335450
#
# Disc length: 4611 seconds
#
# Revision: 2
# Processed by: cddbd v1.4PL0 Copyright (c) Steve Scherf et al.
# Submitted via: MusicWizard 6.0.2
#
DISCID=76120119
DTITLE=Various Artist - 100 Soul Hits  Vol. 4
DYEAR=1900
DGENRE=Soul
TTITLE0=Sam and Dave - Soul Sister Brown Sugar
TTITLE1=James Brown - Sex Machine
TTITLE2=Gladys Knight and The Pips - Love Me Again
TTITLE3=The Drifters - Up On The Roof
TTITLE4=The Moments - Look At Me I'm In Love
TTITLE5=Dobie Gray - Driftaway
TTITLE6=Wilson Pickett - It's Too Late
TTITLE7=Ben E. King - She Does It Right...
TTITLE8=Brook Benton - Hotel Happiness
TTITLE9=The Kingsmen - Louie, Louie
TTITLE10=James Brown - Get On The Good Foot
TTITLE11=King Curtis - Soul Twist
TTITLE12=Eddie Floyd - Never Found A Girl
TTITLE13=Sam and Dave - Don't Pull Your Love Out On Me Baby
TTITLE14=The Drifters - Dance With Me
TTITLE15=Gladys Knight and The Pips - If Ever I Should Fall In Love
TTITLE16=Ramsey Lewis - The 'In' Crowd
TTITLE17=The Moments - Love On A Two Way Street
TTITLE18=Percy Sledge - Take Time To Know Her...
TTITLE19=The Impressions - I Need Your Love
TTITLE20=Sam and Dave - Can't You Find Another Way?
TTITLE21=The Drifters - Some Kind Of Wonderful
TTITLE22=Brook Benton - Thank You Pretty Baby
TTITLE23=Gladys Knight and The Pips - What Shall I Do
TTITLE24=James Brown - I Feel Good
EXTD=
EXTT0=
EXTT1=
EXTT2=
EXTT3=
EXTT4=
EXTT5=
EXTT6=
EXTT7=
EXTT8=
EXTT9=
EXTT10=
EXTT11=
EXTT12=
EXTT13=
EXTT14=
EXTT15=
EXTT16=
EXTT17=
EXTT18=
EXTT19=
EXTT20=
EXTT21=
EXTT22=
EXTT23=
EXTT24=
PLAYORDER=
